<?xml version="1.0" encoding="UTF-8" standalone="no"?>
<svg width="180px" height="80px" viewBox="0 0 180 80" version="1.1" xmlns="http://www.w3.org/2000/svg" xmlns:xlink="http://www.w3.org/1999/xlink" xmlns:sketch="http://www.bohemiancoding.com/sketch/ns">
    <!-- Generator: Sketch 3.4.2 (15857) - http://www.bohemiancoding.com/sketch -->
    <title>Artboard 1</title>
    <desc>Created with Sketch.</desc>
    <defs></defs>
    <g id="Page-1" stroke="none" stroke-width="1" fill="none" fill-rule="evenodd" sketch:type="MSPage">
        <g id="Artboard-1" sketch:type="MSArtboardGroup">
            <g id="Page-1" sketch:type="MSLayerGroup" transform="translate(20.000000, 10.000000)">
                <path d="M81.9941,11.856 L76.3591,38.314 C76.2131,38.951 76.1631,39.44 76.1631,39.882 C76.1631,41.254 76.8011,41.694 78.1721,41.694 C80.0831,41.694 81.8471,39.833 82.5821,37.383 L84.6401,37.383 C81.8471,45.369 76.9961,46.447 74.3501,46.447 C71.4111,46.447 69.1081,44.684 69.1081,40.567 C69.1081,39.637 69.2551,38.559 69.5001,37.383 L74.7421,12.836 L81.9941,11.856 Z" id="Fill-1" fill="#FFFFFF" sketch:type="MSShapeGroup"></path>
                <path d="M89.1973,37.873 C89.1973,41.645 90.7653,41.694 91.6473,41.694 C93.0683,41.694 95.1263,40.225 95.7143,37.383 L98.0653,26.31 C98.0653,25.723 97.6253,24.448 96.0563,24.448 C91.8923,24.448 89.1973,33.268 89.1973,37.873 L89.1973,37.873 Z M106.1013,21.655 L102.5733,38.313 C102.4263,38.951 102.3773,39.44 102.3773,39.882 C102.3773,41.254 103.0143,41.988 104.3853,41.988 C106.2973,41.988 107.6203,39.833 108.3543,37.383 L110.4133,37.383 C107.6203,45.369 103.2103,46.447 100.5643,46.447 C97.8203,46.447 96.0563,44.88 95.7623,41.939 C94.2443,44.193 91.9413,46.447 88.4633,46.447 C85.1313,46.447 81.9463,44.39 81.9463,38.559 C81.9463,31.944 86.0123,21.41 94.5383,21.41 C97.3313,21.41 98.5073,22.488 98.5073,23.909 L98.5073,24.252 L99.0463,21.655 L106.1013,21.655 Z" id="Fill-3" fill="#FFFFFF" sketch:type="MSShapeGroup"></path>
                <path d="M120.8506,11.856 L115.2156,38.314 C115.0696,38.951 115.0196,39.44 115.0196,39.882 C115.0196,41.254 115.6576,41.694 117.0286,41.694 C118.9396,41.694 120.7036,39.833 121.4386,37.383 L123.4966,37.383 C120.7036,45.369 115.8526,46.447 113.2066,46.447 C110.2676,46.447 107.9646,44.684 107.9646,40.567 C107.9646,39.637 108.1116,38.559 108.3566,37.383 L113.5986,12.836 L120.8506,11.856 Z" id="Fill-5" fill="#FFFFFF" sketch:type="MSShapeGroup"></path>
                <path d="M134.374,23.8105 C131.925,23.8105 129.475,29.2495 128.446,33.9045 C132.268,33.7075 135.6,29.9355 135.6,25.8205 C135.6,24.5955 135.306,23.8105 134.374,23.8105 M131.043,41.7925 C132.904,41.7925 135.256,40.5675 136.824,39.1965 C135.795,44.7815 132.268,46.4475 128.348,46.4475 C123.791,46.4475 120.754,44.1935 120.754,38.6575 C120.754,33.0225 123.938,21.2145 133.982,21.2145 C138.343,21.2145 139.372,23.4685 139.372,25.9175 C139.372,31.6015 133.982,35.9135 128.103,36.2555 C128.054,36.7465 128.005,37.2855 128.005,37.7255 C128.005,40.8125 129.328,41.7925 131.043,41.7925" id="Fill-7" fill="#FFFFFF" sketch:type="MSShapeGroup"></path>
                <path d="M30,60 C46.568,60 60,46.568 60,30 C60,13.432 46.568,0 30,0 C13.432,0 0,13.432 0,30 C0,46.568 13.432,60 30,60" id="Fill-9" fill="#546E7A" sketch:type="MSShapeGroup"></path>
                <path d="M30,32 L19.5,27.273 L30,19 L40.5,27.273 L30,32 Z" id="Fill-11" fill="#F99D65" sketch:type="MSShapeGroup"></path>
                <path d="M17.5,30.4121 L17.5,21.0001 L30,26.8831 L42.5,21.0001 L42.5,30.4121 C42.5,37.4711 37.5,41.0001 30,41.0001 C22.5,41.0001 17.5,37.4711 17.5,30.4121" id="Fill-13" fill="#F37048" sketch:type="MSShapeGroup"></path>
                <path d="M4.1538,45.2637 C4.7188,45.6287 6.6888,44.2457 7.4828,43.6447 C10.5918,41.1507 13.9908,41.6267 16.5378,43.2247 C19.4988,44.6547 24.0948,46.3397 25.3558,46.1367 C29.0848,45.4257 34.2968,45.9937 37.0768,44.3087 C39.8578,42.6247 47.0248,38.8807 44.8228,36.1527 C43.9308,35.3007 42.5938,35.9087 41.6368,36.3147 C40.1888,36.9567 38.9818,38.0057 37.7248,38.9527 C35.3388,40.4217 32.4238,40.0077 29.7738,40.3927 C27.5358,40.5707 25.1448,39.8127 23.7158,37.9647 C25.4388,37.5447 28.2838,37.6797 29.7888,38.2887 C31.3568,38.6057 33.2748,38.0707 34.0798,36.5587 C34.6568,35.2817 33.4478,33.8107 32.2178,33.6447 C28.9978,32.8167 25.4978,33.0297 22.4688,31.4607 C19.7878,30.2817 16.9258,28.9667 13.9818,28.9997 C13.3028,29.0097 12.6158,29.0897 11.9308,29.2597 C9.3858,30.7167 4.58317968,32.8496998 1.15917968,36.5586998" id="Fill-15" fill="#FFFFFF" sketch:type="MSShapeGroup"></path>
                <path d="M30,0 C13.432,0 0,13.432 0,30 C0,46.568 13.432,60 30,60 C46.568,60 60,46.568 60,30 C60,13.432 46.568,0 30,0 M30,2 C45.439,2 58,14.561 58,30 C58,45.439 45.439,58 30,58 C14.561,58 2,45.439 2,30 C2,14.561 14.561,2 30,2" id="Fill-17" fill="#546E7A" sketch:type="MSShapeGroup"></path>
            </g>
        </g>
    </g>
</svg>